<svg fill="#FFFFFF" height="200px" width="200px" version="1.1" id="Capa_1" xmlns="http://www.w3.org/2000/svg" xmlns:xlink="http://www.w3.org/1999/xlink" viewBox="0 0 488.6 488.6" xml:space="preserve"><g><g><path d="M440.7,201.5h-10.3V139c0-71.1-57.9-129-129-129s-129,57.9-129,129v62.5H162c-8.3,0-15,6.7-15,15v257.1c0,8.3,6.7,15,15,15h276.7c8.3,0,15-6.7,15-15V216.5C455.7,208.2,449,201.5,440.7,201.5z M201.4,139c0-54.6,44.4-99,99-99s99,44.4,99,99v62.5H201.4V139z M425.7,458.6H177V231.5h248.7V458.6z"/></g></g></svg>